<svg xmlns="http://www.w3.org/2000/svg" width="309" height="66" viewBox="0 0 309 66" fill="none">
  <g style="mix-blend-mode:luminosity" opacity="0.04">
    <path d="M292.423 102C287.337 102 282.11 101.011 276.742 99.0332C271.468 96.9612 266.9 94.1357 263.038 90.5568L273.069 76.9945H273.21C274.623 78.1247 276.177 79.1607 277.872 80.1025C282.581 82.8338 287.667 84.1994 293.13 84.1994C296.049 84.1994 298.215 83.7285 299.628 82.7867C301.135 81.7507 301.889 80.338 301.889 78.5485C301.889 77.3241 301.559 76.3352 300.9 75.5817C300.335 74.8283 299.204 74.0748 297.509 73.3213C295.814 72.4737 292.753 71.1551 288.326 69.3657L284.936 67.9529C279.567 65.7867 275.282 62.9141 272.08 59.3352C268.878 55.6621 267.276 51.2355 267.276 46.0554C267.276 40.7812 268.642 36.3075 271.373 32.6344C274.105 28.9612 277.684 26.2299 282.11 24.4405C286.631 22.651 291.528 21.7562 296.803 21.7562C302.359 21.7562 307.445 22.651 312.06 24.4405C316.77 26.1357 320.866 28.5374 324.351 31.6454L314.321 45.2078H314.18C312.673 44.0776 311.166 43.1828 309.659 42.5236C305.797 40.5457 301.794 39.5568 297.65 39.5568C295.107 39.5568 293.177 40.0277 291.858 40.9695C290.54 41.8172 289.88 43.1357 289.88 44.9252C289.88 46.1496 290.21 47.1385 290.869 47.892C291.529 48.6454 292.753 49.446 294.542 50.2936C296.426 51.1413 299.393 52.2715 303.443 53.6842L306.268 54.6731C310.13 55.9917 313.379 57.7341 316.016 59.9003C318.747 62.0665 320.819 64.6094 322.232 67.5291C323.739 70.4488 324.492 73.651 324.492 77.1357C324.492 81.8449 323.221 86.0831 320.678 89.8504C318.229 93.6177 314.603 96.5845 309.8 98.7507C304.997 100.917 299.204 102 292.423 102Z" fill="url(#paint0_linear_1658_7672)" style="mix-blend-mode:luminosity"/>
    <path d="M179.128 88.8615L200.46 48.7396L180.541 11.3019L178.704 7.77008L174.607 0H201.591L205.122 7.77008L206.676 11.3019L211.197 21.3324C213.458 26.2299 215.294 30.5152 216.707 34.1884H217.413C218.732 30.4211 220.192 26.4654 221.793 22.3213C223.488 18.0831 224.995 14.41 226.314 11.3019L227.726 7.77008L230.693 0H256.688L252.591 7.77008L250.754 11.3019L230.693 49.7285L252.025 88.8615L254.003 92.3933L258.242 100.163H231.258L227.585 92.3933L225.89 88.8615L224.194 85.1884C219.862 76.1468 216.754 69.1773 214.87 64.2798H214.164C212.563 68.9889 209.078 77.1828 203.71 88.8615L202.156 92.3933L198.765 100.163H173.053L177.15 92.3933L179.128 88.8615Z" fill="url(#paint1_linear_1658_7672)" style="mix-blend-mode:luminosity"/>
    <path d="M98.0918 88.8615C98.0918 75.8643 98.0918 62.9141 98.0918 50.0111C98.0918 37.108 98.0918 24.205 98.0918 11.3019V0H161.665V20.2022H122.25C122.25 26.3241 122.25 32.4931 122.25 38.7091H156.014V58.9113H122.25C122.25 65.8809 122.25 72.8975 122.25 79.9612H163.219V100.163H98.0918V88.8615Z" fill="url(#paint2_linear_1658_7672)" style="mix-blend-mode:luminosity"/>
    <path d="M0 88.8615C0 75.8643 0 62.9141 0 50.0111C0 37.108 0 24.205 0 11.3019V0H28.8199C44.831 0 57.3102 4.09695 66.2576 12.2909C75.205 20.3906 79.6787 32.8227 79.6787 49.5872C79.6787 60.8892 77.6066 70.3075 73.4626 77.8421C69.3186 85.3767 63.5263 90.9806 56.0859 94.6537C48.7396 98.3268 40.1219 100.163 30.2327 100.163H0V88.8615ZM27.4072 80.6676C33.0582 80.6676 37.9086 79.6787 41.9584 77.7008C46.0083 75.723 49.1634 72.4737 51.4238 67.9529C53.6842 63.3379 54.8144 57.2161 54.8144 49.5872C54.8144 38.4737 52.4127 30.7036 47.6094 26.277C42.9003 21.7562 36.1662 19.4958 27.4072 19.4958H24.1579C24.1579 29.6676 24.1579 39.8393 24.1579 50.0111C24.1579 60.1828 24.1579 70.4016 24.1579 80.6676H27.4072Z" fill="url(#paint3_linear_1658_7672)" style="mix-blend-mode:luminosity"/>
  </g>
  <defs>
    <linearGradient id="paint0_linear_1658_7672" x1="270.764" y1="-1.89398e-06" x2="252.296" y2="157.498" gradientUnits="userSpaceOnUse">
      <stop stop-color="white" stop-opacity="0.6"/>
      <stop offset="1" stop-color="white" stop-opacity="0"/>
    </linearGradient>
    <linearGradient id="paint1_linear_1658_7672" x1="270.764" y1="-1.89398e-06" x2="252.296" y2="157.498" gradientUnits="userSpaceOnUse">
      <stop stop-color="white" stop-opacity="0.6"/>
      <stop offset="1" stop-color="white" stop-opacity="0"/>
    </linearGradient>
    <linearGradient id="paint2_linear_1658_7672" x1="270.764" y1="-1.89398e-06" x2="252.296" y2="157.498" gradientUnits="userSpaceOnUse">
      <stop stop-color="white" stop-opacity="0.6"/>
      <stop offset="1" stop-color="white" stop-opacity="0"/>
    </linearGradient>
    <linearGradient id="paint3_linear_1658_7672" x1="270.764" y1="-1.89398e-06" x2="252.296" y2="157.498" gradientUnits="userSpaceOnUse">
      <stop stop-color="white" stop-opacity="0.6"/>
      <stop offset="1" stop-color="white" stop-opacity="0"/>
    </linearGradient>
  </defs>
</svg>